<svg width="800" height="800" viewBox="0 0 220 220" xmlns="http://www.w3.org/2000/svg">
  <defs>
    <radialGradient id="specA" cx="50%" cy="60%" r="50%">
      <stop offset="0%" stop-color="#7969A8" stop-opacity="0.3"/>
      <stop offset="50%" stop-color="#524479" stop-opacity="0.2"/>
      <stop offset="100%" stop-color="#1a1030" stop-opacity="0.1"/>
    </radialGradient>
    <linearGradient id="goldA" x1="0%" y1="0%" x2="100%" y2="100%">
      <stop offset="0%" stop-color="#FCC844"/>
      <stop offset="100%" stop-color="#f0b830"/>
    </linearGradient>
    <clipPath id="clipA">
      <circle cx="110" cy="110" r="95"/>
    </clipPath>
  </defs>
  <rect width="220" height="220" fill="#0a0a0a"/>
  <circle cx="110" cy="110" r="100" fill="none" stroke="#7969A8" stroke-width="2.5"/>
  <circle cx="110" cy="110" r="95" fill="#0d0d0d"/>
  <g clip-path="url(#clipA)" opacity="0.4">
    <rect x="30" y="100" width="8" height="80" rx="2" fill="#7969A8" opacity="0.3"/>
    <rect x="45" y="85" width="6" height="95" rx="2" fill="#7969A8" opacity="0.25"/>
    <rect x="58" y="95" width="7" height="85" rx="2" fill="#524479" opacity="0.35"/>
    <rect x="72" y="75" width="6" height="105" rx="2" fill="#7969A8" opacity="0.2"/>
    <rect x="86" y="90" width="8" height="90" rx="2" fill="#524479" opacity="0.3"/>
    <rect x="100" y="80" width="7" height="100" rx="2" fill="#7969A8" opacity="0.25"/>
    <rect x="114" y="88" width="6" height="92" rx="2" fill="#524479" opacity="0.35"/>
    <rect x="128" y="95" width="8" height="85" rx="2" fill="#7969A8" opacity="0.2"/>
    <rect x="142" y="82" width="6" height="98" rx="2" fill="#524479" opacity="0.3"/>
    <rect x="155" y="92" width="7" height="88" rx="2" fill="#7969A8" opacity="0.25"/>
    <rect x="168" y="100" width="8" height="80" rx="2" fill="#524479" opacity="0.2"/>
    <rect x="182" y="105" width="6" height="75" rx="2" fill="#7969A8" opacity="0.15"/>
  </g>
  <path d="M 30 110 C 45 110, 50 110, 60 108 C 70 106, 75 95, 82 80 C 89 65, 95 58, 100 75 C 105 92, 108 115, 115 130 C 122 145, 128 155, 135 140 C 142 125, 148 108, 155 112 C 162 116, 170 112, 190 110" fill="none" stroke="url(#goldA)" stroke-width="6" stroke-linecap="round" stroke-linejoin="round"/>
</svg>
