<svg viewBox="0 0 200 200" xmlns="http://www.w3.org/2000/svg">
  <defs>
    <linearGradient id="borderGrad" x1="0%" y1="0%" x2="100%" y2="100%">
      <stop offset="0%" stop-color="#6a5a9a"/>
      <stop offset="50%" stop-color="#8878b8"/>
      <stop offset="100%" stop-color="#524479"/>
    </linearGradient>
    <linearGradient id="innerBorderGrad" x1="0%" y1="0%" x2="100%" y2="100%">
      <stop offset="0%" stop-color="#9a8cc4"/>
      <stop offset="30%" stop-color="#b8aad4"/>
      <stop offset="70%" stop-color="#8878b0"/>
      <stop offset="100%" stop-color="#7060a0"/>
    </linearGradient>
  </defs>
  
  <!-- Outer frame -->
  <rect x="15" y="15" width="170" height="170" rx="22" fill="none" stroke="url(#borderGrad)" stroke-width="3" opacity="0.8"/>
  
  <!-- Middle frame -->
  <rect x="22" y="22" width="156" height="156" rx="18" fill="none" stroke="url(#innerBorderGrad)" stroke-width="2.5" opacity="0.6"/>
  
  <!-- Inner fill -->
  <rect x="28" y="28" width="144" height="144" rx="14" fill="#0a0812"/>
  
  <!-- Folder shape -->
  <g transform="translate(40, 44) scale(5)">
    <path fill="#9a8cc4" opacity="0.5" d="M2 5a2 2 0 0 1 2-2h5.52a2 2 0 0 1 1.561.75l1.4 1.75H20a2 2 0 0 1 2 2V19a2 2 0 0 1-2 2H4a2 2 0 0 1-2-2z"/>
  </g>
  <!-- Upload arrow (gold, slightly thinner) -->
  <g transform="translate(40, 44) scale(5)">
    <g transform="translate(12, 13.5) scale(0.88) translate(-12, -13.5)">
      <path fill="#FCC844" opacity="0.8" d="M11.293 10.173a1 1 0 0 1 1.414 0l2.121 2.121a1 1 0 1 1-1.414 1.414L13 13.294V16a1 1 0 1 1-2 0v-2.706l-.414.414a1 1 0 1 1-1.414-1.414z"/>
    </g>
  </g>
</svg>
