<svg width="800" height="800" viewBox="0 0 220 220" xmlns="http://www.w3.org/2000/svg">
  <defs>
    <linearGradient id="purpleD" x1="0%" y1="0%" x2="100%" y2="100%">
      <stop offset="0%" stop-color="#7969A8"/>
      <stop offset="100%" stop-color="#524479"/>
    </linearGradient>
  </defs>
  <circle cx="110" cy="110" r="100" fill="#0d0d0d"/>
  <circle cx="110" cy="110" r="100" fill="none" stroke="#7969A8" stroke-width="2"/>
  <circle cx="110" cy="110" r="85" fill="none" stroke="#1a1a1a" stroke-width="0.5"/>
  <path d="M 35 112 C 50 112, 58 110, 68 106 C 78 100, 82 88, 90 72 C 98 56, 102 52, 108 72 C 114 92, 118 125, 125 142 C 132 159, 138 155, 145 136 C 152 117, 158 110, 168 112 C 175 113, 180 112, 188 112" fill="none" stroke="#F3F1E5" stroke-width="5.5" stroke-linecap="round" stroke-linejoin="round"/>
  <circle cx="110" cy="110" r="2" fill="#524479" opacity="0.4"/>
</svg>
