<svg viewBox="0 0 200 200" xmlns="http://www.w3.org/2000/svg">
  <defs>
    <linearGradient id="borderGrad" x1="0%" y1="0%" x2="100%" y2="100%">
      <stop offset="0%" stop-color="#7a6aaa"/>
      <stop offset="50%" stop-color="#9888c8"/>
      <stop offset="100%" stop-color="#624889"/>
    </linearGradient>
    <linearGradient id="innerBorderGrad" x1="0%" y1="0%" x2="100%" y2="100%">
      <stop offset="0%" stop-color="#aa9cd4"/>
      <stop offset="30%" stop-color="#c8bae4"/>
      <stop offset="70%" stop-color="#9888c0"/>
      <stop offset="100%" stop-color="#8070b0"/>
    </linearGradient>
  </defs>
  
  <!-- Outer frame -->
  <rect x="15" y="15" width="170" height="170" rx="22" fill="none" stroke="url(#borderGrad)" stroke-width="3" opacity="0.95"/>
  
  <!-- Middle frame -->
  <rect x="22" y="22" width="156" height="156" rx="18" fill="none" stroke="url(#innerBorderGrad)" stroke-width="2.5" opacity="0.8"/>
  
  <!-- Inner fill -->
  <rect x="28" y="28" width="144" height="144" rx="14" fill="#0a0812"/>
  
  <!-- Gear shape -->
  <path d="
    M 96 50 L 104 50 L 106 58 L 116 60 L 122 54 L 128 60 L 124 68 L 132 76 L 140 72 L 144 80 L 136 84 L 138 94 L 148 96 L 148 104 L 138 106 L 136 116 L 144 120 L 140 128 L 132 124 L 124 132 L 128 140 L 122 146 L 116 140 L 106 142 L 104 150 L 96 150 L 94 142 L 84 140 L 78 146 L 72 140 L 76 132 L 68 124 L 60 128 L 56 120 L 64 116 L 62 106 L 52 104 L 52 96 L 62 94 L 64 84 L 56 80 L 60 72 L 68 76 L 76 68 L 72 60 L 78 54 L 84 60 L 94 58 Z
  " fill="none" stroke="#aa9cd4" stroke-width="2" opacity="0.7"/>
  
  <!-- Inner circle -->
  <circle cx="100" cy="100" r="24" fill="none" stroke="#b8aad4" stroke-width="1.8" opacity="0.6"/>
  
  <!-- Center dot -->
  <circle cx="100" cy="100" r="3" fill="#c8bae4" opacity="0.8"/>
</svg>
