<svg viewBox="0 0 200 200" xmlns="http://www.w3.org/2000/svg">
  <defs>
    <linearGradient id="borderGrad" x1="0%" y1="0%" x2="100%" y2="100%">
      <stop offset="0%" stop-color="#6a5a9a"/>
      <stop offset="50%" stop-color="#8878b8"/>
      <stop offset="100%" stop-color="#524479"/>
    </linearGradient>
    <linearGradient id="innerBorderGrad" x1="0%" y1="0%" x2="100%" y2="100%">
      <stop offset="0%" stop-color="#9a8cc4"/>
      <stop offset="30%" stop-color="#b8aad4"/>
      <stop offset="70%" stop-color="#8878b0"/>
      <stop offset="100%" stop-color="#7060a0"/>
    </linearGradient>
  </defs>
  
  <!-- Outer frame -->
  <rect x="15" y="15" width="170" height="170" rx="22" fill="none" stroke="url(#borderGrad)" stroke-width="3" opacity="0.8"/>
  
  <!-- Middle frame -->
  <rect x="22" y="22" width="156" height="156" rx="18" fill="none" stroke="url(#innerBorderGrad)" stroke-width="2.5" opacity="0.6"/>
  
  <!-- Inner fill -->
  <rect x="28" y="28" width="144" height="144" rx="14" fill="#0a0812"/>
  
  <!-- Eye off icon -->
  <g transform="translate(36, 36) scale(5.3)">
    <path fill="#9a8cc4" opacity="0.3" d="M11.83 9L15 12.16V12a3 3 0 0 0-3-3zm-4.3.8l1.55 1.55c-.05.21-.08.42-.08.65a3 3 0 0 0 3 3c.22 0 .44-.03.65-.08l1.55 1.55c-.67.33-1.41.53-2.2.53a5 5 0 0 1-5-5c0-.79.2-1.53.53-2.2M2 4.27l2.28 2.28l.45.45C3.08 8.3 1.78 10 1 12c1.73 4.39 6 7.5 11 7.5c1.55 0 3.03-.3 4.38-.84l.43.42L19.73 22L21 20.73L3.27 3M12 7a5 5 0 0 1 5 5c0 .64-.13 1.26-.36 1.82l2.93 2.93c1.5-1.25 2.7-2.89 3.43-4.75c-1.73-4.39-6-7.5-11-7.5c-1.4 0-2.74.25-4 .7l2.17 2.15C10.74 7.13 11.35 7 12 7"/>
  </g>
</svg>
