<svg viewBox="0 0 200 200" xmlns="http://www.w3.org/2000/svg">
  <defs>
    <linearGradient id="borderGrad" x1="0%" y1="0%" x2="100%" y2="100%">
      <stop offset="0%" stop-color="#6a5a9a"/>
      <stop offset="50%" stop-color="#8878b8"/>
      <stop offset="100%" stop-color="#524479"/>
    </linearGradient>
    <linearGradient id="innerBorderGrad" x1="0%" y1="0%" x2="100%" y2="100%">
      <stop offset="0%" stop-color="#9a8cc4"/>
      <stop offset="30%" stop-color="#b8aad4"/>
      <stop offset="70%" stop-color="#8878b0"/>
      <stop offset="100%" stop-color="#7060a0"/>
    </linearGradient>
  </defs>
  
  <!-- Outer frame -->
  <rect x="15" y="15" width="170" height="170" rx="22" fill="none" stroke="url(#borderGrad)" stroke-width="3" opacity="0.8"/>
  
  <!-- Middle frame -->
  <rect x="22" y="22" width="156" height="156" rx="18" fill="none" stroke="url(#innerBorderGrad)" stroke-width="2.5" opacity="0.6"/>
  
  <!-- Inner fill -->
  <rect x="28" y="28" width="144" height="144" rx="14" fill="#0a0812"/>
  
  <!-- Eye icon -->
  <g transform="translate(36, 36) scale(5.3)">
    <path fill="#9a8cc4" opacity="0.5" d="M12 9a3 3 0 0 0-3 3a3 3 0 0 0 3 3a3 3 0 0 0 3-3a3 3 0 0 0-3-3m0 8a5 5 0 0 1-5-5a5 5 0 0 1 5-5a5 5 0 0 1 5 5a5 5 0 0 1-5 5m0-12.5C7 4.5 2.73 7.61 1 12c1.73 4.39 6 7.5 11 7.5s9.27-3.11 11-7.5c-1.73-4.39-6-7.5-11-7.5"/>
  </g>

</svg>
